<svg xmlns="http://www.w3.org/2000/svg" enable-background="new 64 64 64 64" viewBox="0 0 64 64" id="vinyl" fill="#EEEEEE">
  <path d="M32,28.082c-2.158,0-3.918,1.76-3.918,3.918c0,2.158,1.76,3.917,3.918,3.917c2.157,0,3.917-1.76,3.917-3.917
		C35.918,29.842,34.158,28.082,32,28.082z"></path>
  <path d="M32,20.52c-6.34,0-11.48,5.14-11.48,11.48c0,6.34,5.14,11.48,11.48,11.48c6.341,0,11.48-5.14,11.48-11.48
		C43.48,25.66,38.341,20.52,32,20.52z M32.001,41.894c-5.45,0-9.895-4.445-9.895-9.895c0-5.45,4.445-9.895,9.895-9.895
		c5.45,0,9.895,4.445,9.895,9.895C41.895,37.449,37.45,41.894,32.001,41.894z"></path>
  <path d="M32,5.065C17.165,5.065,5.065,17.165,5.065,32c0,14.835,12.1,26.935,26.935,26.935c14.835,0,26.935-12.1,26.935-26.935
		C58.935,17.165,46.835,5.065,32,5.065z M25.19,55.272c-1.296-0.217-2.561-0.61-3.773-1.19c-1.213-0.581-2.311-1.322-3.292-2.196
		l4.432-7.703c0.761,0.801,1.653,1.462,2.669,1.95c1.017,0.487,2.091,0.768,3.192,0.86L25.19,55.272z M32,45.468
		c-7.438,0-13.467-6.03-13.467-13.467c0-7.437,6.03-13.467,13.467-13.467c7.438,0,13.467,6.03,13.467,13.467
		C45.467,39.438,39.437,45.468,32,45.468z M41.442,19.818c-0.761-0.8-1.653-1.462-2.669-1.949c-1.016-0.487-2.091-0.768-3.192-0.86
		l3.228-8.28c1.296,0.217,2.561,0.609,3.774,1.19c1.212,0.581,2.311,1.322,3.292,2.195L41.442,19.818z"></path>
</svg>
